<svg xmlns="http://www.w3.org/2000/svg" viewBox="0 0 80 80">
  <!-- Fleur d'ajonc et vague (Loire + Atlantique) -->
  <rect width="80" height="80" rx="12" fill="#82E0AA"/>
  <!-- Vague de la Loire -->
  <path d="M8 50 Q20 42 32 50 Q44 58 56 50 Q68 42 72 50" stroke="#fff" stroke-width="3" fill="none" stroke-linecap="round"/>
  <path d="M8 60 Q20 52 32 60 Q44 68 56 60 Q68 52 72 60" stroke="#fff" stroke-width="2" fill="none" stroke-linecap="round" opacity="0.6"/>
  <!-- Ch‚teau (Tours/Ch‚teaux Loire) -->
  <rect x="28" y="22" width="24" height="22" rx="2" fill="#fff"/>
  <rect x="24" y="26" width="8" height="18" rx="2" fill="#fff"/>
  <rect x="48" y="26" width="8" height="18" rx="2" fill="#fff"/>
  <!-- Crťneaux -->
  <rect x="24" y="22" width="5" height="6" rx="1" fill="#fff"/>
  <rect x="32" y="18" width="5" height="8" rx="1" fill="#fff"/>
  <rect x="40" y="18" width="5" height="8" rx="1" fill="#fff"/>
  <rect x="51" y="22" width="5" height="6" rx="1" fill="#fff"/>
  <!-- Porte -->
  <rect x="36" y="32" width="8" height="12" rx="4" fill="#82E0AA"/>
</svg>